# xmcd CD database file
#
# Track frame offsets:
#	150
#	25910
#	51748
#	86110
#	113243
#	139608
#
# Disc length: 2168 seconds
#
# Revision: 3
# Processed by: cddbd v1.5.1PL2 Copyright (c) Steve Scherf et al.
# Submitted via: CDex 1.60beta1-cs1
#
DISCID=52087606
DTITLE=Ron Carter - Where?
DYEAR=1961
DGENRE=Jazz
TTITLE0=Rally
TTITLE1=Bass Duet
TTITLE2=Softly, As In A Morning Sunrise
TTITLE3=Where?
TTITLE4=Yes, Indeed
TTITLE5=Saucer Eyes
EXTD=1962 OJC/Fantasy/Prestige/New Jazz  OJCCD-432-2\n\nRon Carter -bass, cello\nEric Dolphy -bass clarinet, alto saxophone, flute\nMal Waldron -piano\nGeorge Duvivier -bass\nCharles Persip -drums\n\n YEAR: 1961
EXTT0=
EXTT1=
EXTT2=
EXTT3=
EXTT4=
EXTT5=
PLAYORDER=
